<?xml version="1.0" encoding="UTF-8"?>
<svg id="Warstwa_1" xmlns="http://www.w3.org/2000/svg" version="1.1" viewBox="0 0 306.5 148.9">
  <!-- Generator: Adobe Illustrator 29.4.0, SVG Export Plug-In . SVG Version: 2.1.0 Build 152)  -->
  <defs>
    <style>
      .st0 {
        fill: #2b67b0;
      }

      .st1 {
        fill: #c6cedb;
      }
    </style>
  </defs>
  <path class="st0" d="M140.5,67.5c-3.6,4.2-8,8-13.1,11.9,3.8-8,6.7-17.6,8.6-24.9-4.3-9.7-10.9-19.4-20.7-28-1,6.3-3.3,12.3-6.2,19.1-.6-9.4-2.9-20-4.8-27.5-7.6-5-15.4-8.6-23-11.3.7,6.7.2,13.5-.7,21-2.4-8.4-6.6-17.5-10.1-24.2C48.3-1.8,30.6.5,30.6.5l12.1,24.2,8.6,8.1-29-14.3c-1.3,3.2-1.9,12.4,1.9,18.1,4.8,7.1,16.9,6.6,21.4,4.8-1.9,2.7-4.6,4.4-9.8,4.5,0,0-10.5,14.5-12.3,16.9-1.7,2.5-1.9,4-2.2,6.3-.2,2.4-.2,5.6-.7,6.3-.5.7-11.6,14.6-14.5,17.7C3.3,96.1-.1,99.2,0,100.8c.1,1.6,5,8.4,8.1,10.8,3,2.5,4.1,2.2,5.4,2.2s2.3-.4,3.1.7c.8,1.1,2.7,3.7,3.5,4.3.9.6,2.5,1.3,4.3,0,1.8-1.3,17.7-11.9,20-12.3,1.4-.2,9-1.3,15.1-2.3,3.3-.5,7.2-2.3,8.7-3.7.7-.5,1.3-1.1,1.9-1.6.6-.6,1.2-1.2,1.8-1.8.6-.6,1.2-1.3,1.7-1.9,2.2-2.6,4.3-5.4,6.2-8.3,1-1.4,1.9-2.9,2.8-4.4,0,0,.2-.4.2-.5v-.2c0,0,.2-.3.2-.3.1-.3.2-.7.3-1.1.1-.8.2-1.6.2-2.4,0-1.7,0-3.4-.3-5.1-.2-1.7-.4-3.5-.7-5.2h0c0-.3.1-.5.4-.6.2,0,.5.1.6.3.3.8.6,1.7.8,2.6.2.9.5,1.7.6,2.6.4,1.7.7,3.5.8,5.4,0,.9,0,1.9,0,2.8,0,.5-.1,1-.3,1.5v.4c-.1.1-.2.3-.3.4-.1.3-.2.4-.3.7-.9,1.5-1.8,3.1-2.7,4.6-1.9,3-3.9,6-6.1,8.8-.6.7-1.1,1.4-1.8,2.1-.6.7-1.2,1.3-1.9,2-.7.6-1.3,1.3-2,1.9-5.3,4.4-11.1,6.4-16.4,10.7-6.2,5-13,10.4-16.1,13.1-6.6,5.8-8.1,9-10.2,13.3-.6,1.2-1.7,4.5-3.1,8.5,30.7-9.5,114.3-32.9,114.3-32.9,3.1-6,7.3-26.3,1.6-48.4ZM42.3,63.2c-.3.7-7,12.3-7.8,13.4-.8,1.1-3.3,4.5-3.7,4.6-.5.1.4-3,.4-3.2s-.4-6.3-.4-6.3c0,0-1-.3-1.8-1.1-.9-.8-2-2-1.9-2.2.1-.2,1.7.7,2.4.9.7.3,1,.4,2.3-.4,0,0,9.9-6.5,10.2-6.6.3-.1.7.2.4.9Z"/>
  <g>
    <path class="st1" d="M147.9,61.5c0,2.7-.9,5-2.7,7-1.8,2-4.6,3-8.5,3h-17.7v-5.9h3.6v-21.8h-3.6v-5.9h17.5c3.1,0,5.5.7,7.4,2.1,1.9,1.4,2.8,3.3,2.8,5.7s-.5,3.3-1.6,4.6c-1.1,1.3-2.6,2.1-4.5,2.4v.2c2.4.3,4.2,1.3,5.4,2.8,1.2,1.5,1.8,3.4,1.8,5.7ZM139.3,47.6c0-1.5-.5-2.5-1.4-3-.9-.5-2-.7-3.2-.7h-5.1v7.8h4.6c2,0,3.3-.4,4-1.2.7-.8,1.1-1.8,1.1-2.9ZM140.5,61.2c0-2.8-1.7-4.2-5.1-4.2h-5.8v8.6h5.3c3.7,0,5.6-1.4,5.6-4.3Z"/>
    <path class="st1" d="M174.3,71.5h-25.2v-5.9h3.6v-21.8h-3.6v-5.9h15.2v5.9h-4.7v21.8h8.8l1-6.5,5.9.5-1,11.9Z"/>
    <path class="st1" d="M208.6,43.8h-3v13.8c0,2.4-.4,4.7-1.3,6.9-.9,2.2-2.4,4-4.5,5.4-2.1,1.4-4.9,2.1-8.5,2.1-5.1,0-8.7-1.4-10.8-4.2-2.1-2.8-3.1-6-3.1-9.6v-14.4h-3v-5.9h13.8v5.9h-3.9v14.1c0,2.3.6,4.2,1.7,5.7,1.1,1.5,3,2.2,5.7,2.2s4.6-.8,5.8-2.3c1.2-1.5,1.8-3.5,1.8-6v-13.8h-3.9v-5.9h13.4v5.9Z"/>
    <path class="st1" d="M235.8,71.5h-25.9v-5.9h3.6v-21.8h-3.6v-5.9h25.6l1,9.8-5.9.5-1-4.4h-9.2v7.9h14.1v5.8h-14.1v8.1h9.5l1-4.4,5.9.5-1,9.8Z"/>
    <path class="st1" d="M151.3,118.4h-14.6v-5.9h3.1l-6.1-8.3h-4.1v8.3h2.8v5.9h-13.4v-5.9h3.6v-21.8h-3.6v-5.9h13.5v5.9h-3v7.9h4.2l5.9-7.9h-2.9v-5.9h13.9v5.9h-3.8l-8,10.1,8.9,11.7h3.5v5.9Z"/>
    <path class="st1" d="M187.6,90.7h-3.6v27.7h-3.9c0,0-18-21.3-18-21.3h-.2v15.4h4.6v5.9h-14.7v-5.9h3.6v-21.8h-4.2v-5.9h9.1l16.9,19.9h.2v-14h-4.9v-5.9h14.9v5.9Z"/>
    <path class="st1" d="M203.1,118.4h-14.1v-5.9h3.6v-21.8h-3.6v-5.9h14.1v5.9h-3.6v21.8h3.6v5.9Z"/>
    <path class="st1" d="M236.5,105.7h-1.7v12.7h-5.4l-.7-3.5c-1,1.2-2.3,2.2-4,2.9-1.6.7-3.5,1.1-5.7,1.1-4.7,0-8.5-1.6-11.2-4.9-2.8-3.3-4.2-7.3-4.2-12.1s1.5-9,4.4-12.4c2.9-3.4,7.2-5.2,12.9-5.2s5.2.4,7.4,1.2c2.2.8,3.9,1.7,5,2.8l.9,7.3-5.6.5-.9-3.9c-.9-.6-2-1-3.4-1.3-1.4-.3-2.6-.5-3.7-.5-2.8,0-5,.9-6.8,2.8s-2.7,4.7-2.7,8.6.9,6.5,2.6,8.3c1.7,1.8,3.9,2.7,6.6,2.7s4.1-.6,5.4-1.8c1.3-1.2,2-2.9,2-5.1v-.2h-6.6v-5.8h15.2v5.8Z"/>
    <path class="st1" d="M272.9,118.4h-14.1v-5.9h3.6v-8.2h-14.2v8.2h3.6v5.9h-14.1v-5.9h3.6v-21.8h-3.6v-5.9h14.1v5.9h-3.6v7.7h14.2v-7.7h-3.6v-5.9h14.1v5.9h-3.6v21.8h3.6v5.9Z"/>
    <path class="st1" d="M305.3,96.2l-5.9.5-1-6h-5.3v21.8h5.5v5.9h-17.6v-5.9h5.2v-21.8h-5.3l-1,6-5.9-.5,1-11.4h29.3l1,11.4Z"/>
  </g>
</svg>